<?xml version="1.0" encoding="UTF-8"?>
<svg version="1.1" xmlns="http://www.w3.org/2000/svg" width="1024" height="1024">
<path d="M0 0 C337.92 0 675.84 0 1024 0 C1024 337.92 1024 675.84 1024 1024 C686.08 1024 348.16 1024 0 1024 C0 686.08 0 348.16 0 0 Z " fill="#018BD0" transform="translate(0,0)"/>
<path d="M0 0 C23.1 0 46.2 0 70 0 C70 38.28 70 76.56 70 116 C109.27 116 148.54 116 189 116 C189 77.72 189 39.44 189 0 C212.1 0 235.2 0 259 0 C259 100.32 259 200.64 259 304 C235.9 304 212.8 304 189 304 C189 262.42 189 220.84 189 178 C149.73 178 110.46 178 70 178 C70 219.58 70 261.16 70 304 C46.9 304 23.8 304 0 304 C0 203.68 0 103.36 0 0 Z " fill="#FDFEFE" transform="translate(542,362)"/>
<path d="M0 0 C2.97390747 -0.36076355 2.97390747 -0.36076355 6.83642578 -0.34057617 C7.53897491 -0.34101425 8.24152405 -0.34145233 8.96536255 -0.34190369 C11.29229326 -0.33981021 13.61850736 -0.31645395 15.9453125 -0.29296875 C17.55670783 -0.28737476 19.16810825 -0.28310373 20.7795105 -0.28010559 C25.0244145 -0.26864126 29.26901142 -0.23916068 33.51379395 -0.20599365 C37.84378912 -0.17532682 42.17383382 -0.16160752 46.50390625 -0.14648438 C55.00274521 -0.11429227 63.50133443 -0.06307704 72 0 C74.92126297 6.32748228 77.75215973 12.66025591 80.27734375 19.15625 C80.56447739 19.88734985 80.85161102 20.61844971 81.14744568 21.3717041 C81.76064049 22.93368075 82.37258056 24.49615049 82.9833374 26.05908203 C84.65021351 30.32324818 86.32802769 34.58311588 88.00390625 38.84375 C88.34462158 39.7107251 88.68533691 40.5777002 89.03637695 41.47094727 C92.12368516 49.32423666 95.2393854 57.16588494 98.375 65 C98.78662888 66.02874741 98.78662888 66.02874741 99.20657349 67.07827759 C103.22445845 77.11520257 107.26579208 87.14263507 111.3125 97.16796875 C112.03455376 98.95682243 112.03455376 98.95682243 112.77119446 100.78181458 C113.27104674 102.02015186 113.77089924 103.25848906 114.27075195 104.49682617 C115.04386372 106.41215546 115.81696929 108.32748725 116.59006119 110.24282455 C117.11325759 111.53903667 117.63646875 112.83524283 118.15969467 114.13144302 C130.67909368 145.14737763 143.09889621 176.2030098 155.51171875 207.26171875 C155.98177652 208.43786208 155.98177652 208.43786208 156.46133041 209.63776588 C157.40230169 211.99222595 158.3432484 214.34669583 159.28417969 216.70117188 C159.59152857 217.47024463 159.89887745 218.23931738 160.21553993 219.03169537 C161.76896456 222.91895491 163.32213371 226.80631628 164.87487793 230.69384766 C172.36706223 249.45130969 179.88994359 268.19517015 187.50585938 286.90283203 C188.59653486 289.58305909 189.68513254 292.26412221 190.7734375 294.9453125 C191.10137299 295.74905304 191.42930847 296.55279358 191.7671814 297.38088989 C194 302.88664012 194 302.88664012 194 304 C169.25 304 144.5 304 119 304 C109.79950348 280.99875871 109.79950348 280.99875871 106.97265625 273.40234375 C106.49378212 272.12370201 106.49378212 272.12370201 106.00523376 270.81922913 C105.02222169 268.19276573 104.04234571 265.56514601 103.0625 262.9375 C102.38495999 261.12688038 101.70722619 259.31633327 101.02929688 257.50585938 C100.38524258 255.78391927 99.7413556 254.06191657 99.09765625 252.33984375 C98.79980728 251.54311752 98.50195831 250.7463913 98.19508362 249.92552185 C97.09010111 246.96167396 96.00035822 244.00107467 95 241 C55.73 240.67 16.46 240.34 -24 240 C-24.99 243.63 -25.98 247.26 -27 251 C-27.65784533 253.01277858 -28.34143434 255.01765262 -29.06884766 257.00634766 C-29.44578766 258.04336823 -29.82272766 259.08038879 -30.21109009 260.14883423 C-30.80656143 261.76512222 -30.80656143 261.76512222 -31.4140625 263.4140625 C-31.82917084 264.55032074 -32.24427917 265.68657898 -32.67196655 266.85726929 C-33.54217692 269.23620198 -34.41457093 271.61433695 -35.2890625 273.99169922 C-36.63322879 277.64737953 -37.9694475 281.30589488 -39.3046875 284.96484375 C-40.15318213 287.28141989 -41.00212417 289.59783222 -41.8515625 291.9140625 C-42.25259186 293.01183014 -42.65362122 294.10959778 -43.06680298 295.2406311 C-43.43743866 296.24613007 -43.80807434 297.25162903 -44.18994141 298.28759766 C-44.51620514 299.17597321 -44.84246887 300.06434875 -45.17861938 300.97964478 C-46 303 -46 303 -47 304 C-49.30053835 304.09443335 -51.60402173 304.11742128 -53.90649414 304.11352539 C-54.62840439 304.11367142 -55.35031464 304.11381744 -56.09410095 304.1139679 C-58.49114947 304.11326869 -60.88812123 304.10547595 -63.28515625 304.09765625 C-64.94282489 304.0957921 -66.60049407 304.09436818 -68.25816345 304.09336853 C-72.62954214 304.08954312 -77.00088781 304.07971265 -81.37225342 304.06866455 C-85.82954461 304.05845092 -90.28684111 304.05387101 -94.74414062 304.04882812 C-103.49610893 304.0380904 -112.24805036 304.02101371 -121 304 C-114.98418111 288.03130797 -108.73894662 272.15834328 -102.42993164 256.30352783 C-100.22606535 250.76432985 -98.02518069 245.22394622 -95.82421875 239.68359375 C-95.34054337 238.46642166 -94.85686798 237.24924957 -94.35853577 235.99519348 C-91.01304949 227.5697895 -87.69213123 219.13498007 -84.3828125 210.6953125 C-79.77694775 198.95199357 -75.11712665 187.23110305 -70.4239502 175.52243042 C-69.13679799 172.31099902 -67.85098226 169.09903494 -66.56542969 165.88696289 C-63.06618158 157.14490969 -59.56483687 148.40370488 -56.05516052 139.66583252 C-49.22462371 122.65953683 -42.4906611 105.61893236 -35.84463501 88.53961182 C-31.13512313 76.4380276 -26.37583615 64.35945973 -21.52929688 52.31201172 C-18.65372956 45.15741979 -15.81160532 37.99090965 -12.99609375 30.8125 C-12.65386276 29.94098801 -12.31163177 29.06947601 -11.95903015 28.17155457 C-9.91277027 22.96068413 -9.91277027 22.96068413 -7.87374878 17.74697876 C-6.937113 15.3470382 -5.99627026 12.94878436 -5.0546875 10.55078125 C-4.77503647 9.83039673 -4.49538544 9.11001221 -4.20726013 8.36779785 C-3.0103703 5.32912664 -1.820021 2.7300315 0 0 Z " fill="#FDFEFE" transform="translate(330,362)"/>
<path d="M0 0 C0.66 0 1.32 0 2 0 C12.39936304 27.75629867 22.7087216 55.54087807 32.74194336 83.43188477 C33.08256805 84.37827316 33.42319275 85.32466156 33.7741394 86.29972839 C34.40598365 88.05622785 35.03693099 89.81305031 35.66677856 91.57026672 C36.79193066 94.70076259 37.91805018 97.80423191 39.20288086 100.87353516 C40 103 40 103 40 106 C14.59 106 -10.82 106 -37 106 C-33.62489256 94.74964188 -33.62489256 94.74964188 -32.26098633 90.8972168 C-31.95192856 90.02060394 -31.64287079 89.14399109 -31.32444763 88.24081421 C-30.99695023 87.31958771 -30.66945282 86.39836121 -30.33203125 85.44921875 C-29.80350304 83.95353867 -29.80350304 83.95353867 -29.26429749 82.42764282 C-28.11601581 79.18010313 -26.9643188 75.93378667 -25.8125 72.6875 C-25.01365986 70.43064454 -24.21499671 68.17372642 -23.41650391 65.91674805 C-20.94819816 58.94312677 -18.47481072 51.97131507 -16 45 C-15.3992868 43.3076825 -15.3992868 43.3076825 -14.78643799 41.58117676 C-9.86499444 27.71816066 -4.93605287 13.85782075 0 0 Z " fill="#0673AA" transform="translate(364,438)"/>
<path d="M0 0 C0.33 0 0.66 0 1 0 C1.13535156 1.29550781 1.27070313 2.59101562 1.41015625 3.92578125 C4.03914019 26.53032941 11.78380635 47.75498053 27 65 C27.68707031 65.81855469 28.37414062 66.63710938 29.08203125 67.48046875 C46.6633519 87.91281437 72.25071637 102.07732814 99 106 C99 106.33 99 106.66 99 107 C66.33 107 33.66 107 0 107 C0 71.69 0 36.38 0 0 Z " fill="#016DA0" transform="translate(0,917)"/>
<path d="M0 0 C0.33 0 0.66 0 1 0 C1 33.99 1 67.98 1 103 C-31.67 103 -64.34 103 -98 103 C-98 102.67 -98 102.34 -98 102 C-97.16359985 101.82778931 -97.16359985 101.82778931 -96.31030273 101.65209961 C-84.04922204 99.07393503 -73.03507728 95.96664062 -62 90 C-60.93265625 89.43152344 -59.8653125 88.86304688 -58.765625 88.27734375 C-51.94119987 84.47541148 -45.92473759 80.07562061 -40 75 C-39.18917969 74.33484375 -38.37835937 73.6696875 -37.54296875 72.984375 C-16.05685341 54.71271786 -3.1593721 27.72764726 0 0 Z " fill="#006CA0" transform="translate(1023,921)"/>
<path d="M0 0 C33 0 66 0 100 0 C96.12776373 1.93611813 93.47043599 2.51277365 89.25 3.1875 C80.53764372 4.76384764 72.90828024 8.11247855 65 12 C63.49953125 12.72896484 63.49953125 12.72896484 61.96875 13.47265625 C35.67087609 27.03722052 15.60852762 51.1238764 6 79 C3.88329396 86.22822761 2.3911961 93.60211015 1 101 C0.67 101 0.34 101 0 101 C0 67.67 0 34.34 0 0 Z " fill="#006FA5" transform="translate(0,0)"/>
<path d="M0 0 C33 0 66 0 100 0 C100 32.67 100 65.34 100 99 C99.67 99 99.34 99 99 99 C98.88519287 98.44763672 98.77038574 97.89527344 98.65209961 97.32617188 C91.62368186 64.17209188 74.85897104 37.21671653 46.3125 18.3125 C32.34575902 9.43568495 16.42666406 3.12823446 0 1 C0 0.67 0 0.34 0 0 Z " fill="#006FA3" transform="translate(924,0)"/>
<path d="M0 0 C0.66 0 1.32 0 2 0 C2.51046875 1.17755859 2.51046875 1.17755859 3.03125 2.37890625 C8.05320028 13.26425062 13.78827324 18.82155554 25 23 C25 23.66 25 24.32 25 25 C24.21496094 25.3403125 23.42992187 25.680625 22.62109375 26.03125 C11.73574938 31.05320028 6.17844446 36.78827324 2 48 C1.34 48 0.68 48 0 48 C-0.3403125 47.21496094 -0.680625 46.42992187 -1.03125 45.62109375 C-6.05320028 34.73574938 -11.78827324 29.17844446 -23 25 C-23 24.34 -23 23.68 -23 23 C-22.21496094 22.6596875 -21.42992187 22.319375 -20.62109375 21.96875 C-9.73574938 16.94679972 -4.17844446 11.21172676 0 0 Z " fill="#7DC3E7" transform="translate(967,944)"/>
<path d="M0 0 C37.29 0 74.58 0 113 0 C113 0.33 113 0.66 113 1 C107.04206428 1.18281246 101.08374677 1.34595032 95.125 1.5 C94.18858673 1.52467346 93.25217346 1.54934692 92.28738403 1.57476807 C78.68501532 1.92068872 65.09385291 2.02519908 51.48828125 1.9609375 C49.98158807 1.95489175 48.47489454 1.9489306 46.96820068 1.9430542 C40.21243654 1.91496084 33.45711634 1.87782544 26.70164585 1.80768394 C23.86690442 1.78111644 21.03218533 1.76655963 18.19734764 1.75481033 C16.224268 1.74244246 14.25130818 1.71420711 12.27839661 1.68563843 C11.09783188 1.68222443 9.91726715 1.67881042 8.70092773 1.67529297 C7.66781967 1.66561493 6.63471161 1.65593689 5.57029724 1.64596558 C2.64713567 2.04860376 1.77487562 2.70367045 0 5 C0 3.35 0 1.7 0 0 Z " fill="#0B6796" transform="translate(613,540)"/>
<path d="M0 0 C3.96 0 7.92 0 12 0 C12 0.33 12 0.66 12 1 C11.07767578 1.05607422 11.07767578 1.05607422 10.13671875 1.11328125 C8.92435547 1.21189453 8.92435547 1.21189453 7.6875 1.3125 C6.88699219 1.37050781 6.08648438 1.42851563 5.26171875 1.48828125 C2.63727666 2.08206694 1.69179328 2.95780294 0 5 C0 3.35 0 1.7 0 0 Z " fill="#095C87" transform="translate(613,540)"/>
</svg>
